<?xml version="1.0" encoding="utf-8"?>
<!-- Generator: Adobe Illustrator 24.0.2, SVG Export Plug-In . SVG Version: 6.00 Build 0)  -->
<svg version="1.1" id="Layer_1" xmlns="http://www.w3.org/2000/svg" xmlns:xlink="http://www.w3.org/1999/xlink" x="0px" y="0px"
	 viewBox="0 0 515.7 517.3" style="enable-background:new 0 0 515.7 517.3;" xml:space="preserve">
<style type="text/css">
	.st0{display:none;fill:#474747;}
	.st1{fill:#EEB603;}
	.st2{fill:#E4A308;}
	.st3{fill:#FFFFFF;}
	.st4{fill:#EBEBEB;}
</style>
<rect x="-1649.9" class="st0" width="516.8" height="514.5"/>
<path class="st1" d="M367.5,480.1l-49.9-123.4c-1.6-4-0.3-8.5,3.2-11c32.8-23.3,49.8-63.6,43.7-103.4c-0.7-4.2,1.7-8.4,5.6-10
	l123.4-49.9c5.1-2.1,10.8,0.8,12.3,6.1c16.1,56.2,12.5,115.8-10.7,170.4c-23.1,54.4-63.3,98.3-114.8,125.8
	C375.6,487.3,369.6,485.2,367.5,480.1z"/>
<path class="st2" d="M370.2,232.3l25.4-10.3c16.7,62.4-11.3,128.5-67.6,160l-10.3-25.5c-1.6-4-0.3-8.5,3.2-11
	c32.8-23.3,49.8-63.6,43.7-103.4C363.9,238.1,366.2,233.9,370.2,232.3z"/>
<path class="st1" d="M135.3,484.7c-51.4-27.5-91.7-71.3-114.8-125.8C-2.6,304.3-6.2,244.8,9.9,188.5c1.5-5.3,7.2-8.1,12.3-6.1
	l123.4,49.9c4,1.6,6.3,5.7,5.6,10c-6.2,39.8,10.9,80,43.7,103.4c3.5,2.5,4.8,7,3.2,11l-49.9,123.4
	C146.2,485.2,140.1,487.3,135.3,484.7z"/>
<path class="st2" d="M151.2,242.3c-6.2,39.8,10.9,80,43.7,103.4c3.5,2.5,4.8,7,3.2,11l-10.3,25.5c-56.3-31.5-84.3-97.6-67.6-160
	l25.4,10.3C149.6,233.9,151.9,238.1,151.2,242.3z"/>
<g>
	<path class="st3" d="M347.2,197c2.5,3.5,7,4.9,11,3.3l123.4-49.9c5.1-2.1,7.3-8.1,4.7-12.9c-27.5-51.6-71.4-92-126-115.2
		C327.8,8.5,293.1,1.8,258.4,2v149.8C293.2,151.3,326.8,168.1,347.2,197z"/>
	<path class="st3" d="M170.5,197c20.4-28.9,54-45.6,88.8-45.2V2C224.7,1.8,190,8.5,157.5,22.3C102.9,45.5,59,85.9,31.5,137.5
		c-2.6,4.8-0.4,10.9,4.7,12.9l123.4,49.9C163.5,201.9,168.1,200.5,170.5,197z"/>
</g>
<g>
	<path class="st4" d="M347.2,197c2.5,3.5,7,4.9,11,3.3l25.5-10.3c-25.5-46.3-74.2-73.7-125.3-73.3v35.1
		C293.2,151.3,326.8,168.1,347.2,197z"/>
	<path class="st4" d="M170.5,197c20.4-28.9,54-45.6,88.8-45.2v-35.1c-51.1-0.4-99.8,27-125.3,73.3l25.5,10.3
		C163.5,201.9,168.1,200.5,170.5,197z"/>
</g>
<g>
	<path class="st3" d="M258.4,365.4v150c24.2,0.1,48.4-3.2,72.1-10c5.3-1.5,8.1-7.2,6-12.3l-49.8-123.3c-1.6-4-5.8-6.3-10-5.6
		C270.6,365.1,264.4,365.5,258.4,365.4z"/>
	<path class="st3" d="M241.1,364.1c-4.3-0.7-8.4,1.6-10,5.6L181.3,493c-2.1,5.1,0.8,10.8,6,12.3c23.6,6.8,47.9,10.1,72.1,10v-150
		C253.3,365.5,247.2,365.1,241.1,364.1z"/>
</g>
<g>
	<path class="st4" d="M258.4,365.4v34.8c12.8,0.1,25.8-1.5,38.6-5l-10.3-25.4c-1.6-4-5.8-6.3-10-5.6
		C270.6,365.1,264.4,365.5,258.4,365.4z"/>
	<path class="st4" d="M241.1,364.1c-4.3-0.7-8.4,1.6-10,5.6l-10.3,25.4c12.8,3.5,25.8,5.1,38.6,5v-34.8
		C253.3,365.5,247.2,365.1,241.1,364.1z"/>
</g>
</svg>
