<?xml version="1.0" encoding="utf-8"?>
<!-- Generator: Adobe Illustrator 24.0.2, SVG Export Plug-In . SVG Version: 6.00 Build 0)  -->
<svg version="1.1" id="Layer_1" xmlns="http://www.w3.org/2000/svg" xmlns:xlink="http://www.w3.org/1999/xlink" x="0px" y="0px"
	 viewBox="0 0 515.7 517.3" style="enable-background:new 0 0 515.7 517.3;" xml:space="preserve">
<style type="text/css">
	.st0{display:none;fill:#474747;}
	.st1{fill:#EEB603;}
	.st2{fill:#E4A308;}
	.st3{fill:#FFFFFF;}
	.st4{fill:#EBEBEB;}
</style>
<rect x="-1649.9" class="st0" width="516.8" height="514.5"/>
<path class="st1" d="M367.5,480.1l-49.9-123.4c-1.6-4-0.3-8.5,3.2-11c32.8-23.3,49.8-63.6,43.7-103.4c-0.7-4.2,1.7-8.4,5.6-10
	l123.4-49.9c5.1-2.1,10.8,0.8,12.3,6.1c16.1,56.2,12.5,115.8-10.7,170.4c-23.1,54.4-63.3,98.3-114.8,125.8
	C375.6,487.3,369.6,485.2,367.5,480.1z"/>
<path class="st2" d="M370.2,232.3l25.4-10.3c16.7,62.4-11.3,128.5-67.6,160l-10.3-25.5c-1.6-4-0.3-8.5,3.2-11
	c32.8-23.3,49.8-63.6,43.7-103.4C363.9,238.1,366.2,233.9,370.2,232.3z"/>
<path class="st1" d="M135.3,484.7c-51.4-27.5-91.7-71.3-114.8-125.8C-2.6,304.3-6.2,244.8,9.9,188.5c1.5-5.3,7.2-8.1,12.3-6.1
	l123.4,49.9c4,1.6,6.3,5.7,5.6,10c-6.2,39.8,10.9,80,43.7,103.4c3.5,2.5,4.8,7,3.2,11l-49.9,123.4
	C146.2,485.2,140.1,487.3,135.3,484.7z"/>
<path class="st2" d="M151.2,242.3c-6.2,39.8,10.9,80,43.7,103.4c3.5,2.5,4.8,7,3.2,11l-10.3,25.5c-56.3-31.5-84.3-97.6-67.6-160
	l25.4,10.3C149.6,233.9,151.9,238.1,151.2,242.3z"/>
<path class="st3" d="M486.3,137.5c-27.5-51.6-71.4-92-126-115.2C328.1,8.6,293.7,1.9,259.3,2v0c-0.1,0-0.3,0-0.4,0
	c-0.2,0-0.3,0-0.5,0v0c-34.3-0.1-68.7,6.6-100.9,20.3C102.9,45.5,59,85.9,31.5,137.5c-2.6,4.8-0.4,10.9,4.7,12.9l123.4,49.9
	c3.9,1.6,8.5,0.2,10.9-3.3c20.4-28.8,53.9-45.5,88.6-45.2c34.6-0.3,67.8,16.5,88.1,45.2c2.5,3.5,7,4.9,11,3.3l123.4-49.9
	C486.7,148.3,488.9,142.3,486.3,137.5z"/>
<path class="st4" d="M259.3,116.7L259.3,116.7c-0.2,0-0.3,0-0.4,0c-0.2,0-0.3,0-0.5,0v0c-50.8-0.1-99,27.3-124.4,73.3l25.5,10.3
	c4,1.6,8.6,0.2,11-3.3c20.4-28.8,53.9-45.5,88.6-45.2c34.6-0.3,67.8,16.5,88.1,45.2c2.5,3.5,7,4.9,11,3.3l25.5-10.3
	C358.3,144,310.1,116.6,259.3,116.7z"/>
<path class="st3" d="M336.5,493.1l-49.8-123.3c-1.6-4-5.8-6.3-10-5.6c-5.8,0.9-11.6,1.2-17.3,1.2v-0.1c-6.1,0.2-12.2-0.2-18.3-1.2
	c-4.3-0.7-8.4,1.6-10,5.6L181.3,493c-2.1,5.1,0.8,10.8,6,12.3c23.3,6.7,47.2,10,71.1,10v0.1c24.2,0.1,48.4-3.2,72.1-10
	C335.8,503.9,338.6,498.2,336.5,493.1z"/>
<path class="st4" d="M297,395.2l-10.3-25.4c-1.6-4-5.8-6.3-10-5.6c-5.8,0.9-11.6,1.2-17.3,1.2v-0.1c-6.1,0.2-12.2-0.2-18.3-1.2
	c-4.3-0.7-8.4,1.6-10,5.6l-10.3,25.4c12.5,3.4,25.1,5,37.6,5v0.1C271.2,400.3,284.2,398.7,297,395.2z"/>
</svg>
